<svg width="64" height="17" viewBox="0 0 64 17" fill="none" xmlns="http://www.w3.org/2000/svg">
<path d="M13.024 15.29C11.7774 15.994 10.1567 16.346 8.16203 16.346C5.37536 16.346 3.3147 15.686 1.98003 14.366C0.660029 13.0313 2.93124e-05 10.9707 2.93124e-05 8.184C2.93124e-05 2.728 2.7207 1.3113e-06 8.16203 1.3113e-06C9.86336 1.3113e-06 11.3667 0.359335 12.672 1.078L11.682 2.838C10.714 2.29533 9.5407 2.024 8.16203 2.024C6.0207 2.024 4.4587 2.51534 3.47603 3.498C2.50803 4.466 2.02403 6.028 2.02403 8.184C2.02403 9.29867 2.13403 10.2447 2.35403 11.022C2.5887 11.7993 2.94803 12.4373 3.43203 12.936C3.9307 13.42 4.5687 13.772 5.34603 13.992C6.12336 14.212 7.06203 14.322 8.16203 14.322C9.8047 14.322 11.088 14.058 12.012 13.53L13.024 15.29ZM13.48 15.884V0.484002H15.306V15.884H13.48ZM22.4923 3.3C23.4896 3.3 24.3769 3.454 25.1543 3.762C25.9316 4.05534 26.5916 4.48067 27.1343 5.038C27.6916 5.59534 28.1096 6.28467 28.3883 7.106C28.6816 7.91267 28.8283 8.82934 28.8283 9.856C28.8283 10.692 28.7476 11.506 28.5863 12.298C28.4249 13.0753 28.1169 13.772 27.6623 14.388C27.2076 15.004 26.5623 15.4953 25.7263 15.862C24.9049 16.2287 23.8269 16.412 22.4923 16.412C21.1723 16.412 20.1016 16.2213 19.2803 15.84C18.4589 15.4587 17.8136 14.96 17.3443 14.344C16.8896 13.7133 16.5816 13.0093 16.4203 12.232C16.2589 11.44 16.1783 10.648 16.1783 9.856C16.1783 8.85867 16.3249 7.95667 16.6183 7.15C16.9263 6.34334 17.3516 5.654 17.8943 5.082C18.4516 4.51 19.1189 4.07 19.8963 3.762C20.6736 3.454 21.5389 3.3 22.4923 3.3ZM22.4923 14.586C24.0616 14.586 25.2056 14.212 25.9243 13.464C26.6429 12.7013 27.0023 11.4987 27.0023 9.856C27.0023 9.31334 26.9363 8.76334 26.8043 8.206C26.6869 7.64867 26.4596 7.14267 26.1223 6.688C25.7996 6.23334 25.3449 5.85934 24.7583 5.566C24.1716 5.27267 23.4163 5.126 22.4923 5.126C21.0549 5.126 19.9476 5.53667 19.1703 6.358C18.3929 7.17934 18.0043 8.34534 18.0043 9.856C18.0043 13.0093 19.5003 14.586 22.4923 14.586ZM38.5592 3.828L34.3792 15.884H32.4872L28.3072 3.828H30.2212L33.2792 12.848H33.5872L36.6672 3.828H38.5592ZM49.2479 9.658V10.582H39.8539C39.9566 11.9607 40.3526 12.9727 41.0419 13.618C41.7312 14.2633 42.7432 14.586 44.0779 14.586C44.3272 14.586 44.5839 14.564 44.8479 14.52C45.1119 14.4613 45.3759 14.388 45.6399 14.3C45.9039 14.1973 46.1532 14.0727 46.3879 13.926C46.6226 13.7647 46.8279 13.574 47.0039 13.354L48.4339 14.52C48.1552 14.872 47.8326 15.1653 47.4659 15.4C47.0992 15.6347 46.7179 15.8253 46.3219 15.972C45.9406 16.1333 45.5519 16.2433 45.1559 16.302C44.7746 16.3753 44.4152 16.412 44.0779 16.412C42.1126 16.412 40.6092 15.8547 39.5679 14.74C38.5266 13.6107 38.0059 11.9827 38.0059 9.856C38.0059 9.51867 38.0352 9.13 38.0939 8.69C38.1672 8.23534 38.2846 7.766 38.4459 7.282C38.6219 6.798 38.8566 6.32134 39.1499 5.852C39.4432 5.368 39.8099 4.94267 40.2499 4.576C40.7046 4.19467 41.2472 3.88667 41.8779 3.652C42.5086 3.41734 43.2419 3.3 44.0779 3.3C44.8406 3.3 45.5006 3.41734 46.0579 3.652C46.6152 3.872 47.0846 4.16534 47.4659 4.532C47.8472 4.884 48.1552 5.29467 48.3899 5.764C48.6246 6.21867 48.8006 6.688 48.9179 7.172C49.0499 7.64134 49.1379 8.096 49.1819 8.536C49.2259 8.96134 49.2479 9.33534 49.2479 9.658ZM47.3779 8.756C47.3339 8.34534 47.2459 7.92734 47.1139 7.502C46.9966 7.062 46.8132 6.666 46.5639 6.314C46.3146 5.962 45.9846 5.676 45.5739 5.456C45.1779 5.236 44.6792 5.126 44.0779 5.126C43.3446 5.126 42.7286 5.22867 42.2299 5.434C41.7312 5.63934 41.3206 5.91067 40.9979 6.248C40.6752 6.58534 40.4259 6.974 40.2499 7.414C40.0886 7.83934 39.9712 8.28667 39.8979 8.756H47.3779ZM56.1619 3.322C56.8219 3.322 57.3792 3.42467 57.8339 3.63C58.2886 3.83534 58.6626 4.114 58.9559 4.466L57.6139 5.83C57.4672 5.62467 57.2692 5.46334 57.0199 5.346C56.7852 5.214 56.4992 5.148 56.1619 5.148C55.5019 5.148 54.9079 5.302 54.3799 5.61C53.8519 5.90334 53.4046 6.29934 53.0379 6.798C52.6712 7.282 52.3852 7.832 52.1799 8.448C51.9892 9.04934 51.8939 9.658 51.8939 10.274V15.884H50.0679V3.828H51.8939V6.49H52.0699C52.2459 6.10867 52.4512 5.73467 52.6859 5.368C52.9206 4.98667 53.1992 4.64934 53.5219 4.356C53.8446 4.048 54.2186 3.79867 54.6439 3.608C55.0839 3.41734 55.5899 3.322 56.1619 3.322ZM59.1292 15.95V13.948H60.9552V15.95H59.1292ZM61.7717 15.95V13.948H63.5977V15.95H61.7717Z" fill="black"/>
</svg>
